<svg xmlns="http://www.w3.org/2000/svg" viewBox="0 0 1600 900" fill="none">
  <defs>
    <linearGradient id="bg" x1="0" y1="0" x2="1" y2="1">
      <stop offset="0%" stop-color="#030811"/>
      <stop offset="60%" stop-color="#00050A"/>
      <stop offset="100%" stop-color="#000000"/>
    </linearGradient>
  </defs>
  <rect width="1600" height="900" fill="url(#bg)"/>
  <g stroke="#00BFFF" stroke-opacity=".22">
    <path d="M0 120H1600"/>
    <path d="M0 260H1600"/>
    <path d="M0 400H1600"/>
    <path d="M0 540H1600"/>
    <path d="M0 680H1600"/>
    <path d="M220 0V900"/>
    <path d="M500 0V900"/>
    <path d="M780 0V900"/>
    <path d="M1060 0V900"/>
    <path d="M1340 0V900"/>
  </g>
  <rect x="220" y="170" width="1160" height="520" rx="28" fill="#00050A" stroke="#00BFFF" stroke-opacity=".35"/>
  <path d="M310 610L520 430L670 520L910 300L1160 420L1290 250" stroke="#FF8C00" stroke-width="6" stroke-linecap="round" stroke-linejoin="round"/>
  <circle cx="520" cy="430" r="14" fill="#00BFFF"/>
  <circle cx="910" cy="300" r="14" fill="#00BFFF"/>
  <circle cx="1290" cy="250" r="14" fill="#00BFFF"/>
  <text x="300" y="300" fill="#F8FAFC" font-family="Space Grotesk, sans-serif" font-size="56" font-weight="700">ASTRO X THREE PERFORMANCE</text>
  <text x="300" y="360" fill="#94A3B8" font-family="Space Grotesk, sans-serif" font-size="24" letter-spacing="3">BOUNDARIES / BUDGET / BOOTSTRAP</text>
</svg>
